<svg version="1.1" xmlns="http://www.w3.org/2000/svg" xmlns:xlink="http://www.w3.org/1999/xlink" width="352" height="32"><defs></defs><g><rect fill="#FFFFFF" stroke="none" x="0" y="0" width="32" height="32"></rect><path fill="none" stroke="rgb(79, 79, 79)" paint-order="fill stroke markers" d=" M 31 31 L 1.0345454545454544 1.0345454545454544" stroke-miterlimit="10" stroke-width="2.5"></path><path fill="none" stroke="rgb(79, 79, 79)" paint-order="fill stroke markers" d="" stroke-miterlimit="10" stroke-width="2.5"></path><path fill="none" stroke="rgb(79, 79, 79)" paint-order="fill stroke markers" d=" M 0.9989416779799285 30.8952031776239 A 2985.2606023748235 2985.2606023748235 0 0 0 16 15.999999999999545" stroke-miterlimit="10" stroke-width="2.5"></path><path fill="none" stroke="rgb(79, 79, 79)" paint-order="fill stroke markers" d=" M 16 16 L 30.966367713004484 1.0336322869955161" stroke-miterlimit="10" stroke-width="2.5"></path><g transform="translate(32,0)"><rect fill="#FFFFFF" stroke="none" x="0" y="0" width="32" height="32"></rect><path fill="none" stroke="rgb(79, 79, 79)" paint-order="fill stroke markers" d=" M 31 31 L 1.879087512910628 1.879087512910628" stroke-miterlimit="10" stroke-width="2.5"></path><path fill="none" stroke="rgb(79, 79, 79)" paint-order="fill stroke markers" d="" stroke-miterlimit="10" stroke-width="2.5"></path><path fill="none" stroke="rgb(79, 79, 79)" paint-order="fill stroke markers" d=" M 0.9747253319148896 28.32264229241367 A 98.79554568660052 98.79554568660052 0 0 0 15.999999999999993 15.999999999999993" stroke-miterlimit="10" stroke-width="2.5"></path><path fill="none" stroke="rgb(79, 79, 79)" paint-order="fill stroke markers" d=" M 16 16 L 30.144150108388875 1.8558498916111255" stroke-miterlimit="10" stroke-width="2.5"></path><g transform="translate(32,0)"><rect fill="#FFFFFF" stroke="none" x="0" y="0" width="32" height="32"></rect><path fill="none" stroke="rgb(79, 79, 79)" paint-order="fill stroke markers" d=" M 31 31 L 4.330044027062838 4.330044027062838" stroke-miterlimit="10" stroke-width="2.5"></path><path fill="none" stroke="rgb(79, 79, 79)" paint-order="fill stroke markers" d="" stroke-miterlimit="10" stroke-width="2.5"></path><path fill="none" stroke="rgb(79, 79, 79)" paint-order="fill stroke markers" d=" M 1.0446198360816608 20.743309051863893 A 17.04483682723523 17.04483682723523 0 0 0 16 15.999999999999998" stroke-miterlimit="10" stroke-width="2.5"></path><path fill="none" stroke="rgb(79, 79, 79)" paint-order="fill stroke markers" d=" M 16 16 L 27.75798168240873 4.2420183175912705" stroke-miterlimit="10" stroke-width="2.5"></path><g transform="translate(32,0)"><rect fill="#FFFFFF" stroke="none" x="0" y="0" width="32" height="32"></rect><path fill="none" stroke="rgb(79, 79, 79)" paint-order="fill stroke markers" d=" M 31 31 L 8.147498296578698 8.147498296578698" stroke-miterlimit="10" stroke-width="2.5"></path><path fill="none" stroke="rgb(79, 79, 79)" paint-order="fill stroke markers" d=" M 1.5 12.250000000000002 A 10.75 10.75 0 0 1 1.6147713937573442 10.683343530649456" stroke-miterlimit="10" stroke-width="2.5"></path><path fill="none" stroke="rgb(79, 79, 79)" paint-order="fill stroke markers" d=" M 1.5025260045539124 11.412463212109966 A 8.566870618221634 8.566870618221634 0 0 0 16 16" stroke-miterlimit="10" stroke-width="2.5"></path><path fill="none" stroke="rgb(79, 79, 79)" paint-order="fill stroke markers" d=" M 16 16 L 24.041437226012007 7.958562773987994" stroke-miterlimit="10" stroke-width="2.5"></path><g transform="translate(32,0)"><rect fill="#FFFFFF" stroke="none" x="0" y="0" width="32" height="32"></rect><path fill="none" stroke="rgb(79, 79, 79)" paint-order="fill stroke markers" d=" M 31 31 L 12.95777129979011 12.95777129979011" stroke-miterlimit="10" stroke-width="2.5"></path><path fill="none" stroke="rgb(79, 79, 79)" paint-order="fill stroke markers" d=" M 1.5 12.250000000000002 A 10.75 10.75 0 0 1 8.593388964936167 2.1410091632127095" stroke-miterlimit="10" stroke-width="2.5"></path><path fill="none" stroke="rgb(79, 79, 79)" paint-order="fill stroke markers" d=" M 1.5025260045539124 11.412463212109966 A 8.566870618221634 8.566870618221634 0 0 0 16 16" stroke-miterlimit="10" stroke-width="2.5"></path><path fill="none" stroke="rgb(79, 79, 79)" paint-order="fill stroke markers" d=" M 16 16 L 19.358318005278687 12.641681994721313" stroke-miterlimit="10" stroke-width="2.5"></path><g transform="translate(32,0)"><rect fill="#FFFFFF" stroke="none" x="0" y="0" width="32" height="32"></rect><path fill="none" stroke="rgb(79, 79, 79)" paint-order="fill stroke markers" d=" M 31 31 L 18.289999999999996 18.289999999999996" stroke-miterlimit="10" stroke-width="2.5"></path><path fill="none" stroke="rgb(79, 79, 79)" paint-order="fill stroke markers" d=" M 1.5 12.250000000000002 A 10.75 10.75 0 0 1 20.307089369204995 5.133412974139652" stroke-miterlimit="10" stroke-width="2.5"></path><path fill="none" stroke="rgb(79, 79, 79)" paint-order="fill stroke markers" d=" M 1.5025260045539124 11.412463212109966 A 8.566870618221634 8.566870618221634 0 0 0 14.58540292316727 17.14181731911688" stroke-miterlimit="10" stroke-width="2.5"></path><path fill="none" stroke="rgb(79, 79, 79)" paint-order="fill stroke markers" d=" M 16 16 L 16 16" stroke-miterlimit="10" stroke-width="2.5"></path><g transform="translate(32,0)"><rect fill="#FFFFFF" stroke="none" x="0" y="0" width="32" height="32"></rect><path fill="none" stroke="rgb(79, 79, 79)" paint-order="fill stroke markers" d=" M 31 31 L 20 20" stroke-miterlimit="10" stroke-width="2.5"></path><path fill="none" stroke="rgb(79, 79, 79)" paint-order="fill stroke markers" d=" M 1.5 12.250000000000002 A 10.75 10.75 0 1 1 21.83005710333987 17.126987379186797" stroke-miterlimit="10" stroke-width="2.5"></path><path fill="none" stroke="rgb(79, 79, 79)" paint-order="fill stroke markers" d=" M 1.5025260045539124 11.412463212109966 A 8.566870618221634 8.566870618221634 0 0 0 9.691009253788598 18.505491754567885" stroke-miterlimit="10" stroke-width="2.5"></path><path fill="none" stroke="rgb(79, 79, 79)" paint-order="fill stroke markers" d=" M 16 16 L 16 16" stroke-miterlimit="10" stroke-width="2.5"></path><g transform="translate(32,0)"><rect fill="#FFFFFF" stroke="none" x="0" y="0" width="32" height="32"></rect><path fill="none" stroke="rgb(79, 79, 79)" paint-order="fill stroke markers" d=" M 31 31 L 20 20" stroke-miterlimit="10" stroke-width="2.5"></path><path fill="none" stroke="rgb(79, 79, 79)" paint-order="fill stroke markers" d=" M 1.5 12.250000000000002 A 10.75 10.75 0 1 1 12.491314513691378 22.997291161287194" stroke-miterlimit="10" stroke-width="2.5"></path><path fill="none" stroke="rgb(79, 79, 79)" paint-order="fill stroke markers" d=" M 1.5025260045539124 11.412463212109966 A 8.566870618221634 8.566870618221634 0 0 0 5.301120538685593 17.143047515020516" stroke-miterlimit="10" stroke-width="2.5"></path><path fill="none" stroke="rgb(79, 79, 79)" paint-order="fill stroke markers" d=" M 16 16 L 16 16" stroke-miterlimit="10" stroke-width="2.5"></path><g transform="translate(32,0)"><rect fill="#FFFFFF" stroke="none" x="0" y="0" width="32" height="32"></rect><path fill="none" stroke="rgb(79, 79, 79)" paint-order="fill stroke markers" d=" M 31 31 L 20 20" stroke-miterlimit="10" stroke-width="2.5"></path><path fill="none" stroke="rgb(79, 79, 79)" paint-order="fill stroke markers" d=" M 1.5 12.250000000000002 A 10.75 10.75 0 1 1 4.298182648020025 19.484023831917487" stroke-miterlimit="10" stroke-width="2.5"></path><path fill="none" stroke="rgb(79, 79, 79)" paint-order="fill stroke markers" d=" M 1.5025260045539124 11.412463212109966 A 8.566870618221634 8.566870618221634 0 0 0 2.716877672753138 14.544962711084244" stroke-miterlimit="10" stroke-width="2.5"></path><path fill="none" stroke="rgb(79, 79, 79)" paint-order="fill stroke markers" d=" M 16 16 L 16 16" stroke-miterlimit="10" stroke-width="2.5"></path><g transform="translate(32,0)"><rect fill="#FFFFFF" stroke="none" x="0" y="0" width="32" height="32"></rect><path fill="none" stroke="rgb(79, 79, 79)" paint-order="fill stroke markers" d=" M 31 31 L 20 20" stroke-miterlimit="10" stroke-width="2.5"></path><path fill="none" stroke="rgb(79, 79, 79)" paint-order="fill stroke markers" d=" M 1.5 12.250000000000002 A 10.75 10.75 0 1 1 1.691774729065811 14.27147944046104" stroke-miterlimit="10" stroke-width="2.5"></path><path fill="none" stroke="rgb(79, 79, 79)" paint-order="fill stroke markers" d=" M 1.5025260045539124 11.412463212109966 A 8.566870618221634 8.566870618221634 0 0 0 1.7341801771741547 12.395451569999512" stroke-miterlimit="10" stroke-width="2.5"></path><path fill="none" stroke="rgb(79, 79, 79)" paint-order="fill stroke markers" d=" M 16 16 L 16 16" stroke-miterlimit="10" stroke-width="2.5"></path><g transform="translate(32,0)"><rect fill="#FFFFFF" stroke="none" x="0" y="0" width="32" height="32"></rect><path fill="none" stroke="rgb(79, 79, 79)" paint-order="fill stroke markers" d=" M 31 31 L 20 20" stroke-miterlimit="10" stroke-width="2.5"></path><path fill="none" stroke="rgb(79, 79, 79)" paint-order="fill stroke markers" d=" M 23 12.25 A 10.75 10.75 0 1 1 22.999994625000447 12.23925000179166" stroke-miterlimit="10" stroke-width="2.5"></path></g></g></g></g></g></g></g></g></g></g></g></svg>